name rise49.5252peak65.1548fall88.8305.mot
datacolumns 19
datarows 18
range 13.41661200000000 13.44494900000000
endheader
time	ground_force1_vx	ground_force1_vy	ground_force1_vz	ground_force1_px	ground_force1_py	ground_force1_pz	ground_force2_vx	ground_force2_vy	ground_force2_vz	ground_force2_px	ground_force2_py	ground_force2_pz	ground_torque1_x	ground_torque1_y	ground_torque1_z	ground_torque2_x	ground_torque2_y	ground_torque2_z	
13.41661200000000	60.16793900000000	728.91029000000003	51.30993700000000	0.38043100000000	0.00000000000000	0.08172500000000	-3.11163000000000	34.70189700000000	1.93662800000000	0.10420900000000	0.00000000000000	-0.08735800000000	0.00000000000000	28.95265900000000	0.00000000000000	0.00000000000000	-0.39660900000000	0.00000000000000	
13.41828100000000	59.41980800000000	732.67641900000001	51.50498700000000	0.37902600000000	0.00000000000000	0.08175100000000	-2.29931400000000	27.97356000000000	1.63663600000000	0.09944600000000	0.00000000000000	-0.08573000000000	0.00000000000000	29.03736000000000	0.00000000000000	0.00000000000000	-0.26475200000000	0.00000000000000	
13.41995700000000	58.66893700000000	736.34372099999996	51.71438900000000	0.37764900000000	0.00000000000000	0.08177900000000	-1.60044000000000	21.72183800000000	1.33582600000000	0.00000000000000	0.00000000000000	0.00000000000000	0.00000000000000	29.13372800000000	0.00000000000000	0.00000000000000	-0.14986400000000	0.00000000000000	
13.42160700000000	57.91615300000000	739.90984700000001	51.93780800000000	0.37629900000000	0.00000000000000	0.08180800000000	-1.01664200000000	16.05734000000000	1.04438400000000	0.00000000000000	0.00000000000000	0.00000000000000	0.00000000000000	29.24150400000000	0.00000000000000	0.00000000000000	-0.08472000000000	0.00000000000000	
13.42327400000000	57.16222000000000	743.37243999999998	52.17476200000000	0.37497700000000	0.00000000000000	0.08183900000000	-0.54613200000000	11.07108900000000	0.77175100000000	0.00000000000000	0.00000000000000	0.00000000000000	0.00000000000000	29.36033100000000	0.00000000000000	0.00000000000000	-0.03421800000000	0.00000000000000	
13.42495600000000	56.40783000000000	746.72915000000000	52.42463700000000	0.37368400000000	0.00000000000000	0.08187000000000	-0.18369200000000	6.82662200000000	0.52593700000000	0.00000000000000	0.00000000000000	0.00000000000000	0.00000000000000	29.48975600000000	0.00000000000000	0.00000000000000	0.00278400000000	0.00000000000000	
13.42661000000000	55.65361100000000	749.97764299999994	52.68668400000000	0.37241800000000	0.00000000000000	0.08190200000000	0.07904300000000	3.35499700000000	0.31301300000000	0.00000000000000	0.00000000000000	0.00000000000000	0.00000000000000	29.62923500000000	0.00000000000000	0.00000000000000	0.02775800000000	0.00000000000000	
13.42827400000000	54.90012900000000	753.11561700000004	52.96003100000000	0.37118200000000	0.00000000000000	0.08193500000000	0.00000000000000	0.00000000000000	0.00000000000000	0.00000000000000	0.00000000000000	0.00000000000000	0.00000000000000	29.77813700000000	0.00000000000000	0.00000000000000	0.00000000000000	0.00000000000000	
13.42995000000000	54.14788600000000	756.14081299999998	53.24368800000000	0.36997300000000	0.00000000000000	0.08196900000000	0.00000000000000	0.00000000000000	0.00000000000000	0.00000000000000	0.00000000000000	0.00000000000000	0.00000000000000	29.93575300000000	0.00000000000000	0.00000000000000	0.00000000000000	0.00000000000000	
13.43160800000000	53.39732400000000	759.05102899999997	53.53655800000000	0.36879300000000	0.00000000000000	0.08200300000000	0.00000000000000	0.00000000000000	0.00000000000000	0.00000000000000	0.00000000000000	0.00000000000000	0.00000000000000	30.10129700000000	0.00000000000000	0.00000000000000	0.00000000000000	0.00000000000000	
13.43328000000000	52.64882800000000	761.84413300000006	53.83744000000000	0.36763900000000	0.00000000000000	0.08203800000000	0.00000000000000	0.00000000000000	0.00000000000000	0.00000000000000	0.00000000000000	0.00000000000000	0.00000000000000	30.27391700000000	0.00000000000000	0.00000000000000	0.00000000000000	0.00000000000000	
13.43494800000000	51.90272900000000	764.51807299999996	54.14504400000000	0.36651300000000	0.00000000000000	0.08207300000000	0.00000000000000	0.00000000000000	0.00000000000000	0.00000000000000	0.00000000000000	0.00000000000000	0.00000000000000	30.45269800000000	0.00000000000000	0.00000000000000	0.00000000000000	0.00000000000000	
13.43661700000000	51.15930500000000	767.07089499999995	54.45799600000000	0.36541300000000	0.00000000000000	0.08210800000000	0.00000000000000	0.00000000000000	0.00000000000000	0.00000000000000	0.00000000000000	0.00000000000000	0.00000000000000	30.63667000000000	0.00000000000000	0.00000000000000	0.00000000000000	0.00000000000000	
13.43827400000000	50.41878500000000	769.50075100000004	54.77485100000000	0.36433900000000	0.00000000000000	0.08214300000000	0.00000000000000	0.00000000000000	0.00000000000000	0.00000000000000	0.00000000000000	0.00000000000000	0.00000000000000	30.82481300000000	0.00000000000000	0.00000000000000	0.00000000000000	0.00000000000000	
13.43994700000000	49.68135200000000	771.80591400000003	55.09409900000000	0.36328900000000	0.00000000000000	0.08217800000000	0.00000000000000	0.00000000000000	0.00000000000000	0.00000000000000	0.00000000000000	0.00000000000000	0.00000000000000	31.01606900000000	0.00000000000000	0.00000000000000	0.00000000000000	0.00000000000000	
13.44161300000000	48.94714700000000	773.98478699999998	55.41417900000000	0.36226300000000	0.00000000000000	0.08221300000000	0.00000000000000	0.00000000000000	0.00000000000000	0.00000000000000	0.00000000000000	0.00000000000000	0.00000000000000	31.20934100000000	0.00000000000000	0.00000000000000	0.00000000000000	0.00000000000000	
13.44327700000000	48.21627100000000	776.03591700000004	55.73349100000000	0.36126000000000	0.00000000000000	0.08224700000000	0.00000000000000	0.00000000000000	0.00000000000000	0.00000000000000	0.00000000000000	0.00000000000000	0.00000000000000	31.40350700000000	0.00000000000000	0.00000000000000	0.00000000000000	0.00000000000000	
13.44494900000000	47.48879000000000	777.95800599999995	56.05039900000000	0.36027800000000	0.00000000000000	0.08228100000000	0.00000000000000	0.00000000000000	0.00000000000000	0.00000000000000	0.00000000000000	0.00000000000000	0.00000000000000	31.59742400000000	0.00000000000000	0.00000000000000	0.00000000000000	0.00000000000000	
